<svg xmlns="http://www.w3.org/2000/svg" viewBox="0 0 1092.43 233.71"><defs><style>.cls-1{fill:#ff576b;}.cls-2{fill:#fff;}</style></defs><title>Asset 9</title><g id="Layer_2" data-name="Layer 2"><g id="Layer_1-2" data-name="Layer 1"><path id="conduit-mark" class="cls-1" d="M192.94,185.83a8.31,8.31,0,0,0-5.35,1.91,100.14,100.14,0,1,1,.15-141.62h0a8.35,8.35,0,0,1-.54,11.13,8.48,8.48,0,0,1-12,0h0a83.42,83.42,0,1,0,.57,118.67,24.94,24.94,0,0,0,.11-35.36,25.19,25.19,0,0,0-35.57-.1,33.17,33.17,0,1,1,.14-47.3h0a8.87,8.87,0,0,0,5.3,1.88,8.37,8.37,0,0,0,8.37-8.37,8.54,8.54,0,0,0-1.69-5.25h0a50.23,50.23,0,1,0-.14,71c3.3-3.3,8.44-3.64,11.75-.34a8.45,8.45,0,0,1-.09,12h0a66.72,66.72,0,1,1-.57-94.94h0A25.06,25.06,0,0,0,199.5,34.36l.06-.06c-.14-.13-.29-.25-.42-.38s-.16-.21-.25-.31l0,0a117,117,0,1,0,.56,165.63,7.87,7.87,0,0,0,1.75-5.24A8.22,8.22,0,0,0,192.94,185.83Z"/><path class="cls-2" d="M283.13,116.26c0-35.93,26.64-60.47,59.95-60.47,18.23,0,31.2,6.83,40.67,17.18a8,8,0,0,1,2.1,5.6,8.23,8.23,0,0,1-8.24,8.24A8,8,0,0,1,371.3,84a37.43,37.43,0,0,0-28.22-12.62c-23.66,0-41.89,18.58-41.89,44.87,0,26.12,18.23,44.88,41.89,44.88a38.11,38.11,0,0,0,28.4-12.62,7.56,7.56,0,0,1,6.13-2.81,8.23,8.23,0,0,1,8.24,8.24,8,8,0,0,1-2.1,5.61c-9.64,10.34-22.44,17.18-40.67,17.18C309.77,176.74,283.13,152.2,283.13,116.26Z"/><path class="cls-2" d="M468.41,55.79c34.88,0,58.9,25.77,58.9,60.47s-24,60.48-58.9,60.48-58.9-25.77-58.9-60.48S433.53,55.79,468.41,55.79Zm0,15.6c-25.07,0-40.84,19.1-40.84,44.87,0,25.6,15.77,44.88,40.84,44.88,24.72,0,40.84-19.28,40.84-44.88C509.25,90.49,493.13,71.39,468.41,71.39Z"/><path class="cls-2" d="M636.86,171,574.81,84.89v81.86a8.76,8.76,0,0,1-8.59,8.76,8.94,8.94,0,0,1-8.94-8.76V68.41a11.56,11.56,0,0,1,11.57-11.57,11.37,11.37,0,0,1,9.29,4.73L639,145.36V65.6a8.75,8.75,0,0,1,8.59-8.76,9,9,0,0,1,8.94,8.76v99a10.93,10.93,0,0,1-10.87,10.87A10.08,10.08,0,0,1,636.86,171Z"/><path class="cls-2" d="M691.2,165.34V67c0-6,3.33-9.29,9.46-9.29h32.26c36.46,0,60.65,24.89,60.65,58.54,0,33.83-24.19,58.38-60.65,58.38H700.66C694.53,174.64,691.2,171.31,691.2,165.34Zm41.72-6.13c27,0,42.59-19.28,42.59-42.95,0-24-15.07-43.12-42.59-43.12H708.73v86.07Z"/><path class="cls-2" d="M823.54,65.6a8.94,8.94,0,0,1,8.94-8.76,8.78,8.78,0,0,1,8.76,8.76v62.76c0,20,11,32.78,31.56,32.78s31.37-12.8,31.37-32.78V65.6a9,9,0,0,1,8.94-8.76,8.79,8.79,0,0,1,8.77,8.76v63.11c0,29.1-16.3,48-49.08,48s-49.26-19.11-49.26-47.86Z"/><path class="cls-2" d="M956.76,166.75V65.6a8.94,8.94,0,0,1,8.94-8.76,8.76,8.76,0,0,1,8.59,8.76V166.75a8.76,8.76,0,0,1-8.59,8.76A8.94,8.94,0,0,1,956.76,166.75Z"/><path class="cls-2" d="M1037.74,166.75V73.14h-29.45a7.63,7.63,0,0,1-7.71-7.54,7.81,7.81,0,0,1,7.71-7.88h76.25a8,8,0,0,1,7.89,7.88,7.79,7.79,0,0,1-7.89,7.54h-29.27v93.61a8.9,8.9,0,0,1-8.77,8.76A8.79,8.79,0,0,1,1037.74,166.75Z"/></g></g></svg>