<?xml version="1.0" encoding="utf-8"?>
<!-- Generator: Adobe Illustrator 22.0.1, SVG Export Plug-In . SVG Version: 6.00 Build 0)  -->
<svg version="1.1" id="linkerd-logo" xmlns="http://www.w3.org/2000/svg" xmlns:xlink="http://www.w3.org/1999/xlink" x="0px"
	 y="0px" viewBox="0 0 138.9 129.2" style="enable-background:new 0 0 138.9 129.2;" xml:space="preserve">
<style type="text/css">
	.st0{fill:url(#SVGID_1_);}
	.st1{fill:url(#SVGID_2_);}
	.st2{fill:#2BEDA7;}
	.st3{fill:url(#SVGID_3_);}
	.st4{fill:url(#SVGID_4_);}
	.st5{fill:url(#SVGID_5_);}
	.st6{fill:url(#SVGID_6_);}
	.st7{fill:url(#SVGID_7_);}
	.st8{fill:url(#SVGID_8_);}
</style>
<g>
	<g>
		<g>
			<linearGradient id="SVGID_1_" gradientUnits="userSpaceOnUse" x1="130.52" y1="24.5322" x2="130.52" y2="79.4914">
				<stop  offset="0" style="stop-color:#2BEDA7"/>
				<stop  offset="1" style="stop-color:#018AFD"/>
			</linearGradient>
			<polygon class="st0" points="125.9,24.5 125.9,74.2 135.1,79.5 135.1,29.8 			"/>
			<linearGradient id="SVGID_2_" gradientUnits="userSpaceOnUse" x1="7.7799" y1="24.5335" x2="7.7799" y2="79.4947">
				<stop  offset="0" style="stop-color:#2BEDA7"/>
				<stop  offset="1" style="stop-color:#018AFD"/>
			</linearGradient>
			<polygon class="st1" points="3.2,79.5 12.4,74.2 12.4,24.5 3.2,29.8 			"/>
		</g>
		<g>
			<polygon class="st2" points="48.1,79 90.2,103.3 90.2,92.8 50.8,70 48.1,71.5 48.1,71.5 			"/>
			<path class="st2" d="M92.6,117.4L48.1,91.7v10.6l11.9,6.9l-14.3,8.3c-1,0.6-1,1.9,0,2.5l7,4l16.5-9.5l16.5,9.5l7-4
				C93.6,119.4,93.6,118,92.6,117.4z"/>
		</g>
		<g>
			<linearGradient id="SVGID_3_" gradientUnits="userSpaceOnUse" x1="130.52" y1="48.8613" x2="130.52" y2="99.6342">
				<stop  offset="0" style="stop-color:#2BEDA7"/>
				<stop  offset="1" style="stop-color:#018AFD"/>
			</linearGradient>
			<path class="st3" d="M125.9,54.1v44c0,1.1,1.2,1.8,2.2,1.3l6.3-3.6c0.4-0.3,0.7-0.7,0.7-1.3V48.9L125.9,54.1z"/>
			<linearGradient id="SVGID_4_" gradientUnits="userSpaceOnUse" x1="110.3679" y1="60.4958" x2="110.3679" y2="111.2687">
				<stop  offset="0" style="stop-color:#2BEDA7"/>
				<stop  offset="1" style="stop-color:#018AFD"/>
			</linearGradient>
			<path class="st4" d="M108,111.1l5.9-3.4c0.7-0.4,1.1-1.1,1.1-1.9V60.5l-9.2,5.3v44C105.8,110.9,107,111.6,108,111.1z"/>
			<linearGradient id="SVGID_5_" gradientUnits="userSpaceOnUse" x1="90.216" y1="72.1296" x2="90.216" y2="123.959">
				<stop  offset="0" style="stop-color:#2BEDA7"/>
				<stop  offset="1" style="stop-color:#018AFD"/>
			</linearGradient>
			<path class="st5" d="M85.6,124l8.4-4.9c0.4-0.3,0.7-0.7,0.7-1.3V72.1l-9.2,5.3V124z"/>
			<linearGradient id="SVGID_6_" gradientUnits="userSpaceOnUse" x1="48.0885" y1="72.1297" x2="48.0885" y2="123.9582">
				<stop  offset="0" style="stop-color:#2BEDA7"/>
				<stop  offset="1" style="stop-color:#018AFD"/>
			</linearGradient>
			<path class="st6" d="M44.2,119.1l8.4,4.9V77.4l-9.2-5.3v45.7C43.5,118.4,43.8,118.8,44.2,119.1z"/>
			<linearGradient id="SVGID_7_" gradientUnits="userSpaceOnUse" x1="27.9367" y1="60.4955" x2="27.9367" y2="111.2685">
				<stop  offset="0" style="stop-color:#2BEDA7"/>
				<stop  offset="1" style="stop-color:#018AFD"/>
			</linearGradient>
			<path class="st7" d="M24.4,107.7l5.9,3.4c1,0.6,2.2-0.1,2.2-1.3v-44l-9.2-5.3v45.3C23.4,106.6,23.8,107.3,24.4,107.7z"/>
			<linearGradient id="SVGID_8_" gradientUnits="userSpaceOnUse" x1="7.7849" y1="48.8605" x2="7.7849" y2="99.6335">
				<stop  offset="0" style="stop-color:#2BEDA7"/>
				<stop  offset="1" style="stop-color:#018AFD"/>
			</linearGradient>
			<path class="st8" d="M4.3,96l5.9,3.4c1,0.6,2.2-0.1,2.2-1.3v-44l-9.2-5.3v45.3C3.2,94.9,3.6,95.6,4.3,96z"/>
		</g>
		<g>
			<path class="st2" d="M135.1,29.8l-9.2-5.3l-16.5,9.5l-11-6.3l14.3-8.3c1-0.6,1-1.9,0-2.5l-5.9-3.4c-0.7-0.4-1.5-0.4-2.2,0
				l-15.4,8.9l-11-6.3l14.3-8.3c1-0.6,1-1.9,0-2.5l-5.9-3.4c-0.7-0.4-1.5-0.4-2.2,0l-15.4,8.9L53.7,1.9c-0.7-0.4-1.5-0.4-2.2,0
				l-5.9,3.4c-1,0.6-1,1.9,0,2.5l80.3,46.3l9.2-5.3l-16.5-9.5L135.1,29.8z"/>
			<path class="st2" d="M31.4,13.5l-5.9,3.4c-1,0.6-1,1.9,0,2.5l80.3,46.3l9.2-5.3l-81.4-47C32.9,13.1,32.1,13.1,31.4,13.5z"/>
			<polygon class="st2" points="3.2,29.8 19.7,39.3 3.2,48.9 12.4,54.2 28.9,44.6 39.8,51 23.4,60.5 32.5,65.8 49,56.3 60,62.6 
				43.5,72.1 52.7,77.4 69.1,67.9 85.6,77.4 94.8,72.1 12.4,24.5 			"/>
		</g>
	</g>
</g>
</svg>
