<?xml version="1.0" encoding="utf-8"?>
<!-- Generator: Adobe Illustrator 22.0.1, SVG Export Plug-In . SVG Version: 6.00 Build 0)  -->
<svg version="1.1" xmlns="http://www.w3.org/2000/svg" xmlns:xlink="http://www.w3.org/1999/xlink" x="0px" y="0px"
	 viewBox="0 0 1092.4 233.7" style="enable-background:new 0 0 1092.4 233.7;" xml:space="preserve">
<style type="text/css">
	.st0{fill:#FF576B;}
	.st1{fill:#6D6E71;}
	.st2{fill:#FFFFFF;}
	.st3{fill:url(#SVGID_1_);}
	.st4{fill:url(#SVGID_2_);}
	.st5{fill:#2BEDA7;}
	.st6{fill:url(#SVGID_3_);}
	.st7{fill:url(#SVGID_4_);}
	.st8{fill:url(#SVGID_5_);}
	.st9{fill:url(#SVGID_6_);}
	.st10{fill:url(#SVGID_7_);}
	.st11{fill:url(#SVGID_8_);}
	.st12{fill:url(#SVGID_9_);}
	.st13{fill:url(#SVGID_10_);}
	.st14{fill:url(#SVGID_11_);}
	.st15{fill:url(#SVGID_12_);}
	.st16{fill:url(#SVGID_13_);}
	.st17{fill:url(#SVGID_14_);}
	.st18{fill:url(#SVGID_15_);}
	.st19{fill:url(#SVGID_16_);}
	.st20{fill:url(#SVGID_17_);}
	.st21{fill:url(#SVGID_18_);}
	.st22{fill:url(#SVGID_19_);}
	.st23{fill:url(#SVGID_20_);}
	.st24{fill:url(#SVGID_21_);}
	.st25{fill:url(#SVGID_22_);}
	.st26{fill:url(#SVGID_23_);}
	.st27{fill:url(#SVGID_24_);}
	.st28{filter:url(#Adobe_OpacityMaskFilter);}
	.st29{mask:url(#mask-2_6_);}
	.st30{fill:#018AFD;}
	.st31{fill:#00A2FD;}
	.st32{fill:#06C0FD;}
	.st33{fill:#03B5FD;}
	.st34{fill:#0074FD;}
	.st35{fill:#005CFD;}
	.st36{filter:url(#Adobe_OpacityMaskFilter_1_);}
	.st37{mask:url(#mask-4_6_);fill:#003CFD;}
	.st38{fill:#0E13FD;}
	.st39{filter:url(#Adobe_OpacityMaskFilter_2_);}
	.st40{mask:url(#mask-2_5_);fill:#FFFFFF;}
	.st41{filter:url(#Adobe_OpacityMaskFilter_3_);}
	.st42{mask:url(#mask-4_5_);fill:#003CFD;}
	.st43{filter:url(#Adobe_OpacityMaskFilter_4_);}
	.st44{mask:url(#mask-2_1_);fill:#FFFFFF;}
	.st45{filter:url(#Adobe_OpacityMaskFilter_5_);}
	.st46{mask:url(#mask-4_4_);fill:#FFFFFF;}
	.st47{fill:#018BFE;}
	.st48{fill:#02C2FE;}
	.st49{fill:#04B6FE;}
	.st50{fill:#0095FE;}
	.st51{fill:#0074FE;}
	.st52{fill:#005CFE;}
	.st53{fill:#003DFE;}
	.st54{fill:#0E13FE;}
	.st55{filter:url(#Adobe_OpacityMaskFilter_6_);}
	.st56{mask:url(#mask-2_7_);}
	.st57{filter:url(#Adobe_OpacityMaskFilter_7_);}
	.st58{mask:url(#mask-2_2_);fill:#FFFFFF;}
	.st59{filter:url(#Adobe_OpacityMaskFilter_8_);}
	.st60{mask:url(#mask-4_3_);fill:#003CFD;}
	.st61{filter:url(#Adobe_OpacityMaskFilter_9_);}
	.st62{mask:url(#mask-4_7_);fill:#003CFD;}
	.st63{filter:url(#Adobe_OpacityMaskFilter_10_);}
	.st64{mask:url(#mask-4_1_);fill:#003CFD;}
	.st65{fill:url(#SVGID_25_);}
	.st66{fill:url(#SVGID_26_);}
	.st67{fill:url(#SVGID_27_);}
	.st68{fill:url(#SVGID_28_);}
	.st69{fill:url(#SVGID_29_);}
	.st70{fill:url(#SVGID_30_);}
	.st71{fill:url(#SVGID_31_);}
	.st72{fill:url(#SVGID_32_);}
	.st73{fill:url(#SVGID_33_);}
	.st74{fill:url(#SVGID_34_);}
	.st75{fill:url(#SVGID_35_);}
	.st76{fill:url(#SVGID_36_);}
	.st77{fill:url(#SVGID_37_);}
	.st78{fill:url(#SVGID_38_);}
	.st79{fill:url(#SVGID_39_);}
	.st80{fill:url(#SVGID_40_);}
	.st81{fill:url(#SVGID_41_);}
	.st82{fill:url(#SVGID_42_);}
	.st83{fill:url(#SVGID_43_);}
	.st84{fill:url(#SVGID_44_);}
	.st85{fill:url(#SVGID_45_);}
	.st86{fill:url(#SVGID_46_);}
	.st87{fill:url(#SVGID_47_);}
	.st88{fill:url(#SVGID_48_);}
	.st89{fill:url(#SVGID_49_);}
	.st90{fill:url(#SVGID_50_);}
	.st91{fill:url(#SVGID_51_);}
	.st92{fill:url(#SVGID_52_);}
	.st93{fill:url(#SVGID_53_);}
	.st94{fill:url(#SVGID_54_);}
	.st95{fill:url(#SVGID_55_);}
	.st96{fill:url(#SVGID_56_);}
	.st97{fill:url(#SVGID_57_);}
	.st98{fill:url(#SVGID_58_);}
	.st99{fill:url(#SVGID_59_);}
	.st100{fill:url(#SVGID_60_);}
	.st101{fill:url(#SVGID_61_);}
	.st102{fill:url(#SVGID_62_);}
	.st103{fill:url(#SVGID_63_);}
	.st104{fill:url(#SVGID_64_);}
	.st105{display:none;}
	.st106{display:inline;}
</style>
<g id="Layer_1">
	<g>
		<path class="st2" d="M300.7,164.6v-97c0-4.6,3.9-8.5,8.7-8.5c4.6,0,8.4,3.9,8.4,8.5v91.1h44.8c4.1,0,7.7,3.2,7.7,7.3
			c0,4.3-3.6,7.7-7.7,7.7h-52.7C303.9,173.6,300.7,170.4,300.7,164.6z"/>
		<path class="st2" d="M403.5,165.9V67.5c0-4.6,3.9-8.5,8.7-8.5c4.6,0,8.4,3.9,8.4,8.5v98.4c0,4.6-3.8,8.5-8.4,8.5
			C407.4,174.5,403.5,170.5,403.5,165.9z"/>
		<path class="st2" d="M538.7,170l-60.4-83.7v79.6c0,4.6-3.8,8.5-8.4,8.5c-4.8,0-8.7-3.9-8.7-8.5V70.3c0-6.1,4.9-11.3,11.3-11.3
			c3.6,0,7,1.7,9,4.6l59.2,81.5V67.5c0-4.6,3.8-8.5,8.4-8.5c4.8,0,8.7,3.9,8.7,8.5v96.3c0,5.8-4.8,10.6-10.6,10.6
			C543.7,174.5,540.6,172.9,538.7,170z"/>
		<path class="st2" d="M683.5,166.3c0,4.4-3.4,8.2-7.8,8.2c-2.2,0-4.3-0.5-6-2.4l-43.3-47.6l-10.9,11.6v29.8c0,4.6-3.8,8.5-8.5,8.5
			c-4.6,0-8.5-3.9-8.5-8.5V67.5c0-4.6,3.9-8.5,8.5-8.5c4.8,0,8.5,3.9,8.5,8.5v49.1l50.1-55.1c1.7-1.9,3.8-2.6,6-2.6
			c4.3,0,8,3.4,8,7.8c0,2-0.5,3.9-2.2,5.5l-39.6,42.1l43.5,46.4C682.6,162.4,683.5,164.4,683.5,166.3z"/>
		<path class="st2" d="M717.9,164.6V68.9c0-5.8,3.2-9,9.2-9h60.4c4.1,0,7.7,3.4,7.7,7.7c0,4.1-3.6,7.3-7.7,7.3H735v33.3h51.3
			c4.1,0,7.7,3.2,7.7,7.3c0,4.3-3.6,7.7-7.7,7.7H735v35.5h52.5c4.1,0,7.7,3.2,7.7,7.3c0,4.3-3.6,7.7-7.7,7.7h-60.4
			C721.2,173.6,717.9,170.4,717.9,164.6z"/>
		<path class="st2" d="M915.7,166.6c0,3.6-3.2,7.8-8,7.8c-2.9,0-5.6-1.4-7.2-3.6l-28.5-41.1h-24v36.2c0,4.6-3.8,8.5-8.4,8.5
			c-4.8,0-8.7-3.9-8.7-8.5v-97c0-5.8,3.2-9,9.2-9h38.7c21.7,0,36.5,14,36.5,35c0,19.1-11.9,30-25.4,32.7l24,33.8
			C915,162.5,915.7,163.9,915.7,166.6z M848,114.8h28.6c12.3,0,21.1-8,21.1-20c0-11.9-8.9-20-21.1-20H848V114.8z"/>
		<path class="st2" d="M951.7,164.6V68.9c0-5.8,3.2-9,9.2-9h31.4c35.5,0,59,24.2,59,57c0,32.9-23.5,56.8-59,56.8h-31.4
			C954.9,173.6,951.7,170.4,951.7,164.6z M992.3,158.6c26.3,0,41.4-18.8,41.4-41.8c0-23.4-14.7-41.9-41.4-41.9h-23.5v83.7H992.3z"/>
	</g>
	<g>
		<g>
			<linearGradient id="SVGID_1_" gradientUnits="userSpaceOnUse" x1="239.7491" y1="43.1393" x2="239.7491" y2="146.622">
				<stop  offset="0" style="stop-color:#2BEDA7"/>
				<stop  offset="1" style="stop-color:#018AFD"/>
			</linearGradient>
			<polygon class="st3" points="231.1,43.1 231.1,136.7 248.4,146.6 248.4,53.1 			"/>
			<linearGradient id="SVGID_2_" gradientUnits="userSpaceOnUse" x1="8.6421" y1="43.1418" x2="8.6421" y2="146.628">
				<stop  offset="0" style="stop-color:#2BEDA7"/>
				<stop  offset="1" style="stop-color:#018AFD"/>
			</linearGradient>
			<polygon class="st4" points="0,146.6 17.3,136.7 17.3,43.1 0,53.1 			"/>
		</g>
		<g>
			<polygon class="st5" points="84.5,145.7 163.9,191.5 163.9,171.6 89.6,128.7 84.5,131.6 84.5,131.7 			"/>
			<path class="st5" d="M168.4,218l-83.9-48.4v19.9l22.4,12.9L80,218c-1.8,1-1.8,3.7,0,4.7l13.2,7.6l31-17.9l31,17.9l13.2-7.6
				C170.2,221.7,170.2,219.1,168.4,218z"/>
		</g>
		<g>
			<linearGradient id="SVGID_3_" gradientUnits="userSpaceOnUse" x1="239.7491" y1="88.9486" x2="239.7491" y2="184.5487">
				<stop  offset="0" style="stop-color:#2BEDA7"/>
				<stop  offset="1" style="stop-color:#018AFD"/>
			</linearGradient>
			<path class="st6" d="M231.1,98.9v82.9c0,2.1,2.3,3.4,4.1,2.4l11.8-6.8c0.8-0.5,1.4-1.4,1.4-2.4V88.9L231.1,98.9z"/>
			<linearGradient id="SVGID_4_" gradientUnits="userSpaceOnUse" x1="201.8047" y1="110.8552" x2="201.8047" y2="206.4553">
				<stop  offset="0" style="stop-color:#2BEDA7"/>
				<stop  offset="1" style="stop-color:#018AFD"/>
			</linearGradient>
			<path class="st7" d="M197.3,206.1l11.1-6.4c1.3-0.7,2-2.1,2-3.5v-85.3l-17.2,10v82.9C193.2,205.8,195.4,207.1,197.3,206.1z"/>
			<linearGradient id="SVGID_5_" gradientUnits="userSpaceOnUse" x1="163.8609" y1="132.7605" x2="163.8609" y2="230.3498">
				<stop  offset="0" style="stop-color:#2BEDA7"/>
				<stop  offset="1" style="stop-color:#018AFD"/>
			</linearGradient>
			<path class="st8" d="M155.2,230.3l15.9-9.2c0.8-0.5,1.4-1.4,1.4-2.4v-86.1l-17.2,10V230.3z"/>
			<linearGradient id="SVGID_6_" gradientUnits="userSpaceOnUse" x1="84.539" y1="132.7606" x2="84.539" y2="230.3483">
				<stop  offset="0" style="stop-color:#2BEDA7"/>
				<stop  offset="1" style="stop-color:#018AFD"/>
			</linearGradient>
			<path class="st9" d="M77.3,221.2l15.9,9.2v-87.6l-17.2-10v86.1C75.9,219.8,76.4,220.7,77.3,221.2z"/>
			<linearGradient id="SVGID_7_" gradientUnits="userSpaceOnUse" x1="46.5953" y1="110.8545" x2="46.5953" y2="206.455">
				<stop  offset="0" style="stop-color:#2BEDA7"/>
				<stop  offset="1" style="stop-color:#018AFD"/>
			</linearGradient>
			<path class="st10" d="M40,199.7l11.1,6.4c1.8,1,4.1-0.3,4.1-2.4v-82.9l-17.2-10v85.3C38,197.6,38.7,198.9,40,199.7z"/>
			<linearGradient id="SVGID_8_" gradientUnits="userSpaceOnUse" x1="8.6514" y1="88.9471" x2="8.6514" y2="184.5475">
				<stop  offset="0" style="stop-color:#2BEDA7"/>
				<stop  offset="1" style="stop-color:#018AFD"/>
			</linearGradient>
			<path class="st11" d="M2.1,177.8l11.1,6.4c1.8,1,4.1-0.3,4.1-2.4V98.9L0,88.9v85.3C0,175.7,0.8,177,2.1,177.8z"/>
		</g>
		<g>
			<path class="st5" d="M248.4,53.1l-17.3-10l-31,17.9l-20.7-11.9l27-15.6c1.8-1,1.8-3.7,0-4.7l-11.1-6.4c-1.3-0.7-2.8-0.7-4.1,0
				l-29,16.7l-20.7-11.9l27-15.6c1.8-1,1.8-3.7,0-4.7l-11.1-6.4c-1.3-0.7-2.8-0.7-4.1,0l-29,16.7l-29-16.8c-1.3-0.7-2.8-0.7-4.1,0
				L80,6.9c-1.8,1-1.8,3.7,0,4.7l151.1,87.3l17.2-10l-31-17.9L248.4,53.1z"/>
			<path class="st5" d="M53.2,22.4L42,28.8c-1.8,1-1.8,3.7,0,4.7l151.1,87.3l17.3-10L57.3,22.4C56,21.7,54.4,21.7,53.2,22.4z"/>
			<polygon class="st5" points="0,53.1 31.1,71 0,89 17.3,98.9 48.3,81 69,92.9 38,110.9 55.2,120.8 86.3,102.9 106.9,114.8 
				75.9,132.8 93.2,142.7 124.2,124.8 155.2,142.7 172.5,132.8 17.3,43.1 			"/>
		</g>
	</g>
</g>
<g id="nyt_x5F_exporter_x5F_info" class="st105">
</g>
</svg>
